<?xml version="1.0" encoding="utf-8"?>
<!-- Generator: Adobe Illustrator 16.0.0, SVG Export Plug-In . SVG Version: 6.00 Build 0)  -->
<!DOCTYPE svg PUBLIC "-//W3C//DTD SVG 1.1//EN" "http://www.w3.org/Graphics/SVG/1.1/DTD/svg11.dtd">
<svg version="1.1" id="Layer_1" xmlns="http://www.w3.org/2000/svg" xmlns:xlink="http://www.w3.org/1999/xlink" x="0px" y="0px"
	 width="566.93px" height="566.93px" viewBox="0 0 566.93 566.93" enable-background="new 0 0 566.93 566.93" xml:space="preserve">
<g>
	<path d="M359.834,538.833c0.667-11.334-3.074-33.5-3.074-33.5l-2.908-39.332c-0.148-3.333,0-13.667,0-13.667L350.5,408.5
		c4.5-1.333,3.167-8.5,3.167-8.5l-5.186-40.667c-0.686-5.167-2.981-8.083-2.981-8.083c4.166-0.75,2.75-7.5,2.75-7.5V308.5
		c0-3.75-2.5-5.25-2.5-5.25c-4-25-23.083-36.25-23.083-36.25l-3.167-17l2.167-0.167l6-6v-21.5l-6.334-6l-16.5,0.333
		c0.166-6.5-1.666-61.833-1.666-61.833C302.667,144.167,298,83,298,83c-0.334-8-1.666-30.75-1.666-30.75l-0.167-6h44.498
		c3.833,0.25,3.667-4.583,3.667-4.583V36c0-3.5-4.5-3-4.5-3l-41.141-0.024L298.833,31c0-8.167-5.666-7-5.666-7h-21.333
		c-4.333,0-4.667,6.5-4.667,6.5c-0.333,2.667-2.667,2.5-2.667,2.5h-12.502L252,32.975L225.667,33c0,0-4.5-0.5-4.5,3v5.667
		c0,0-0.166,4.833,3.667,4.583h25.417c0,0,1.125,8,6.125,8.125c0,0,4.596-2.532,8.25,0h3.954C264.263,89.077,259,216.25,259,216.25
		h-14.5l-7.25,7.5v20.75l5.5,5.5h1.75c-0.5,1.5-2.5,18-2.5,18c-20,15.75-20.75,34.75-20.75,34.75c-5.549,1.576-5.5,22.25-5.5,22.25
		c-0.75,12.75,0,22,0,22c0.25,4,5.25,3,5.25,3c-2.5,16.25-5.75,41.75-5.75,41.75C213.5,408,209,455,209,455h2.667
		c-1.833,6.75-4.167,38.25-4.167,38.25c-4.5,25.5-4.167,45.75-4.167,45.75H208v5.5c0.167,2.167,3.667,1.833,3.667,1.833H352.5
		c3-0.5,2.667-3.166,2.667-3.166v-4.334H359.834z"/>
	<path fill="#00734C" d="M205.5,537.5c0,0,0.5-65.167,26.167-123.5c0,0,14.667-32.332,25.667-53.666c0,0,3.333-7.334,3.667-19.334
		l4.333,1.334L299,342.667c0,0-0.333,11.667,5.667,22.667c0,0,26,50,32.333,73c0,0,21.334,69.404,19.667,99L205.5,537.5z"/>
	<path fill="#FFFFFF" d="M211.667,452.334c0,0,6.333-76,11.667-101c0,0,1-11.666,2-13.666H255.5c0,0,1.25,16.082-2.5,21.832
		c0,0-34.992,62.264-38.333,92.834H211.667z"/>
	<path fill="#FFFFFF" d="M305,337.668h36.334V352c0,0,4.166,0.334,4.666,7l5.667,43.333c0,0,0.333,3-3,4l3.009,46.001H348
		c0,0-18.666-53.334-39.333-89.001C308.667,363.333,302.333,353.336,305,337.668z"/>
	<path fill="#FFFFFF" d="M225,334.5c0,0,1.25-11.5,2.25-14.5H225v-13c0,0,2.25-9.75,6-13c0,0,1.25-11,11-12.25h20.75
		c0,0,0.75-7.75,5.25-7.75h29.75c0,0,4-0.5,5.5,8h21.5c0,0,8.25,2.5,10.25,11.75c0,0,5,5.5,5.25,14v11.5c0,0,0.5,15,0,16L225,334.5z
		"/>
	<path fill="#00734C" d="M272.333,255.667V244c0,0-0.667-4,5.333-3.667h10.667c0,0,4.333-0.667,5,3.333v12H272.333z"/>
	<path fill="#ED1C24" d="M257.125,52.25c0,0,4.375-2.875,7.25,0h2.75c0,0-0.375-5.625-3.875-6h-10
		C253.25,46.25,253,52.125,257.125,52.25z"/>
	<path d="M238.75,469.25H226.5l12.25-40.5c0,0,1.75-4.75,8.5-4.5h69.5c0,0,6.5-1,8.25,4l12,41h-13.75L314.5,441c0,0-1.5-3.5-5.5-3.5
		h-54.75c0,0-6.5-0.75-7.25,4L238.75,469.25z"/>
</g>
<g>
	<path d="M333.747,44.23c0,0-29.024,42.981,15.14,76.926c0,0-13.815,7.481-51.805,0.99c0,0-10.448-1.031-14.09,10.668
		c0,0-13.745,31.194,81.924,59.434c0,0-6.32,9.22-58.985-8.11c0,0-30.108-14.422-39.87,5.616c0,0-21.086,44.824,54.395,73.954
		c0,0,76.332,27.468,132.655-37.056c0,0,35.812-44.194,23.853-114.807c0,0-16.161-72.515-96.782-87.505
		C380.181,24.339,352.98,19.421,333.747,44.23z"/>
	<g>
		<g>
			<path fill="#FFFFFF" d="M390.831,51.832l-0.062-2.353c-0.292,0.009-7.161,0.245-9.862,4.682
				c-1.572,2.576-1.383,5.927,0.564,9.957l2.12-1.026c-1.577-3.258-1.801-5.852-0.674-7.707
				C384.608,52.6,389.206,51.875,390.831,51.832z"/>
		</g>
	</g>
	<g>
		<g>
			<path fill="#FFFFFF" d="M366.032,86.361l0.06-2.354c-0.274-0.007-6.785-0.129-9.641,3.966c-1.669,2.392-1.715,5.615-0.136,9.578
				l2.185-0.873c-1.266-3.182-1.307-5.658-0.118-7.358C360.154,86.774,364.505,86.319,366.032,86.361z"/>
		</g>
	</g>
	<path fill="none" stroke="#00AEEF" stroke-miterlimit="10" d="M380.445,77.539c0,0-2.993,3.164-1.395,6.013
		c0,0,2.081,3.441,6.075-1.756c0,0,3.289-3.502,1.277-5.52C386.403,76.275,384.646,73.726,380.445,77.539z"/>
	<path fill="#FFFFFF" d="M401.64,92.043c0,0,10.097-15.466,10.984-40.66c0,0-2.822-2.514-6.875,0.262
		c0,0-13.974,17.513-21.731,17.572c0,0-15.585,0.408-9.641-15.867c0,0,3.631-10.308,16.008-14.251c0,0-11.91-7.41-23.027,1.781
		c0,0-7.761,4.084-8.532,23.421c0,0-0.498,2.672-4.921,4.123c0,0-13.02,3.794-14.889,14.511c0,0-3.11,10.734,7.72,21.459
		c0,0-0.987-25.785,18.894-25.352c0,0,16.416,3.344-0.375,29.649c0,0-3.228,3.897-0.211,6.919
		C365.043,115.611,383.355,120.79,401.64,92.043z M378.225,94.173l0.533-2.295c8.985,2.086,12.271-2.633,12.4-2.83l0.152-0.185
		c5.92-6.006,0.696-13.526,0.472-13.842l1.913-1.37c0.051,0.072,3.818,5.444,2.465,11.271c-0.427,1.844-1.369,3.737-3.103,5.519
		C392.433,91.312,388.234,96.496,378.225,94.173z"/>
	<path fill="#DC7541" d="M425.449,57.527c0,0,1.899,90.601-125.787,74.865c0,0-12.812-0.847-3.06,13.184
		c0,0,21.667,26.71,93.821,42.833c0,0,10.253-0.099,16.908-4.75c0,0-24.024,42.13-110.966,8.327c0,0-19.58-6.404-22.127,7.254
		c0,0-2.047,44.752,63.753,56.92c0,0,97.793,15.792,127.417-79.82C465.409,176.339,489.171,108.626,425.449,57.527z"/>
</g>
</svg>
